<svg width="52" height="14" viewBox="0 0 52 14" fill="none" xmlns="http://www.w3.org/2000/svg">
<circle cx="6.72583" cy="7" r="6.32812" fill="#7CD957"/>
<path d="M14.4602 4.89692C14.4602 1.64933 17.9758 -0.380424 20.7883 1.24337L24.302 3.27196C27.1145 4.89576 27.1145 8.95526 24.302 10.5791L20.7883 12.6076C17.9758 14.2314 14.4602 12.2017 14.4602 8.95411L14.4602 4.89692Z" fill="#7CD957"/>
<path d="M27.8176 3.48857C27.8176 1.32351 30.1614 -0.0296578 32.0364 1.05287L37.4697 4.18983C39.3447 5.27236 39.3448 7.9787 37.4698 9.06123L32.0364 12.1982C30.1614 13.2807 27.8176 11.9276 27.8176 9.76249L27.8176 3.48857Z" fill="#7CD957"/>
<path d="M40.2822 2.08022C40.2822 0.997689 41.4541 0.321109 42.3916 0.862375L50.8991 5.77421C51.8366 6.31547 51.8366 7.66864 50.8991 8.2099L42.3916 13.1217C41.4541 13.663 40.2822 12.9864 40.2822 11.9039L40.2822 2.08022Z" fill="#7CD957"/>
</svg>
