<svg width="68" height="32" viewBox="0 0 68 32" fill="none" xmlns="http://www.w3.org/2000/svg">
<g clip-path="url(#clip0_1_399)">
<path d="M29.1099 16.2896C29.1099 19.425 26.6571 21.7353 23.647 21.7353C20.6369 21.7353 18.1841 19.425 18.1841 16.2896C18.1841 13.1322 20.6369 10.8439 23.647 10.8439C26.6571 10.8439 29.1099 13.1322 29.1099 16.2896ZM26.7185 16.2896C26.7185 14.3303 25.2969 12.9898 23.647 12.9898C21.9971 12.9898 20.5755 14.3303 20.5755 16.2896C20.5755 18.2293 21.9971 19.5895 23.647 19.5895C25.2969 19.5895 26.7185 18.2268 26.7185 16.2896Z" fill="black" fill-opacity="0.2"/>
<path d="M40.8892 16.2896C40.8892 19.425 38.4364 21.7353 35.4263 21.7353C32.4162 21.7353 29.9634 19.425 29.9634 16.2896C29.9634 13.1346 32.4162 10.8439 35.4263 10.8439C38.4364 10.8439 40.8892 13.1322 40.8892 16.2896ZM38.4978 16.2896C38.4978 14.3303 37.0762 12.9898 35.4263 12.9898C33.7764 12.9898 32.3548 14.3303 32.3548 16.2896C32.3548 18.2293 33.7764 19.5895 35.4263 19.5895C37.0762 19.5895 38.4978 18.2268 38.4978 16.2896Z" fill="black" fill-opacity="0.2"/>
<path d="M52.187 11.1729V20.9497C52.187 24.9714 49.8152 26.6139 47.0114 26.6139C44.372 26.6139 42.7834 24.8486 42.1843 23.4049L44.2664 22.5382C44.6371 23.4246 45.5456 24.4705 47.0089 24.4705C48.8037 24.4705 49.9159 23.3632 49.9159 21.2787V20.4955H49.8324C49.2972 21.1559 48.266 21.7329 46.9647 21.7329C44.2418 21.7329 41.7473 19.3611 41.7473 16.3093C41.7473 13.2353 44.2418 10.8439 46.9647 10.8439C48.2635 10.8439 49.2947 11.4209 49.8324 12.0617H49.9159V11.1754H52.187V11.1729ZM50.0853 16.3093C50.0853 14.3917 48.8061 12.9898 47.1783 12.9898C45.5284 12.9898 44.1461 14.3917 44.1461 16.3093C44.1461 18.2072 45.5284 19.5895 47.1783 19.5895C48.8061 19.5895 50.0853 18.2072 50.0853 16.3093Z" fill="black" fill-opacity="0.2"/>
<path d="M55.927 5.44234V21.4014H53.5945V5.44234H55.927Z" fill="black" fill-opacity="0.2"/>
<path d="M65.0189 18.0818L66.8751 19.3192C66.276 20.2056 64.8324 21.7327 62.3378 21.7327C59.2442 21.7327 56.9338 19.3413 56.9338 16.287C56.9338 13.0485 59.2639 10.8413 62.0702 10.8413C64.8962 10.8413 66.2785 13.0903 66.7303 14.3056L66.9782 14.9243L59.6984 17.9394C60.2558 19.032 61.1225 19.5893 62.3378 19.5893C63.5556 19.5893 64.4002 18.9902 65.0189 18.0818ZM59.3056 16.1225L64.1719 14.1018C63.9043 13.4217 63.099 12.9479 62.1512 12.9479C60.9359 12.9479 59.2442 14.0208 59.3056 16.1225Z" fill="black" fill-opacity="0.2"/>
<path d="M9.35009 14.8729V12.5625H17.1357C17.2118 12.9652 17.2511 13.4415 17.2511 13.9571C17.2511 15.6905 16.7772 17.8339 15.25 19.3611C13.7646 20.9079 11.8667 21.7328 9.35254 21.7328C4.69249 21.7328 0.773926 17.937 0.773926 13.277C0.773926 8.61695 4.69249 4.82114 9.35254 4.82114C11.9305 4.82114 13.7671 5.8327 15.1469 7.15117L13.5166 8.78145C12.5272 7.85337 11.1866 7.13153 9.35009 7.13153C5.94712 7.13153 3.28564 9.87403 3.28564 13.277C3.28564 16.68 5.94712 19.4225 9.35009 19.4225C11.5574 19.4225 12.8144 18.5361 13.6198 17.7308C14.2728 17.0777 14.7025 16.1447 14.8719 14.8704L9.35009 14.8729Z" fill="black" fill-opacity="0.2"/>
</g>
<defs>
<clipPath id="clip0_1_399">
<rect width="66.7826" height="22.5882" fill="white" transform="translate(0.682861 4.70591)"/>
</clipPath>
</defs>
</svg>
